<?xml version="1.0" standalone="no"?>
<svg viewBox="0 0 200 200" xmlns="http://www.w3.org/2000/svg">
  <path fill="#FF0066" d="M29,-40.5C42.2,-36.7,60.7,-36.4,69.5,-28.4C78.3,-20.4,77.5,-4.7,70.3,6.5C63,17.6,49.3,24.2,39.7,33.4C30.2,42.6,24.8,54.4,15.2,61.7C5.6,69,-8.1,71.8,-16.5,65.2C-24.8,58.6,-27.6,42.5,-35.7,31.7C-43.7,21,-57,15.5,-57.8,8.5C-58.5,1.4,-46.7,-7.3,-40.4,-17.3C-34,-27.3,-33,-38.6,-27.2,-45.7C-21.4,-52.9,-10.7,-55.9,-1.4,-53.7C7.9,-51.6,15.9,-44.3,29,-40.5Z" transform="translate(100 100)" />
</svg>
